<svg width="150" height="40" viewBox="0 0 150 40" fill="none" xmlns="http://www.w3.org/2000/svg">
<g clip-path="url(#clip0)">
<path d="M148.601 1.39343H1.40039V38.6065H148.601V1.39343Z" stroke="#222222" stroke-width="3" stroke-miterlimit="10"/>
<path d="M11.8251 13.4196C11.8189 13.294 11.8614 13.1708 11.9436 13.0754C11.9865 13.0323 12.0379 12.9986 12.0946 12.9766C12.1514 12.9546 12.2121 12.9447 12.2729 12.9475H19.1519C19.7425 12.9439 20.3275 13.0611 20.8708 13.2918C21.3983 13.5146 21.8779 13.8363 22.2835 14.2393C22.6901 14.6455 23.0153 15.1251 23.2417 15.6524C23.4767 16.1972 23.5966 16.7842 23.5941 17.377C23.5981 17.8662 23.5156 18.3523 23.3504 18.8131C23.1931 19.246 22.9601 19.6479 22.6622 20C23.1622 20.4616 23.5632 21.0192 23.841 21.6393C24.1273 22.256 24.2756 22.9272 24.2757 23.6065C24.2785 24.2173 24.1552 24.8222 23.9135 25.3836C23.6776 25.9304 23.3428 26.4295 22.9256 26.8557C22.5182 27.2807 22.0331 27.6245 21.4965 27.8688C20.9513 28.1192 20.3581 28.249 19.7578 28.2491H12.2795C12.1601 28.2548 12.0428 28.2163 11.9502 28.1409C11.907 28.0984 11.8735 28.0471 11.8519 27.9905C11.8303 27.934 11.8212 27.8734 11.8251 27.8131V13.4196ZM19.6195 17.4786C19.6206 17.2805 19.5814 17.0842 19.5042 16.9016C19.4269 16.7231 19.315 16.5616 19.1749 16.4262C19.0328 16.285 18.8638 16.1735 18.6777 16.0983C18.4768 16.018 18.262 15.9779 18.0455 15.9803H15.8293V18.9672H18.0191C18.2434 18.9709 18.4665 18.9342 18.6777 18.859C18.8656 18.7929 19.0374 18.6878 19.1815 18.5508C19.3217 18.4155 19.4337 18.2539 19.5108 18.0754C19.5877 17.886 19.6247 17.6829 19.6195 17.4786ZM20.1694 23.4655C20.1688 23.2534 20.1286 23.0433 20.0509 22.8459C19.9746 22.6443 19.8631 22.4578 19.7216 22.295C19.5787 22.1326 19.4067 21.9981 19.2145 21.8983C19.0175 21.7953 18.7981 21.7424 18.5756 21.7442H15.8293V25.1868H18.569C18.7882 25.1888 19.0048 25.1394 19.2013 25.0426C19.3936 24.947 19.5657 24.8157 19.7084 24.6557C20.0022 24.3281 20.165 23.9047 20.1661 23.4655H20.1694Z" fill="#222222"/>
<path d="M34.9688 13.3475C34.9792 13.2979 35.0018 13.2517 35.0347 13.213C35.1218 13.1078 35.2354 13.0275 35.364 12.9803C35.4194 12.9577 35.4786 12.9454 35.5385 12.9442H38.1728C38.2828 12.9418 38.3896 12.9804 38.4725 13.0524C38.5413 13.1094 38.6042 13.1731 38.6602 13.2426L38.9203 13.8294L44.3537 27.7835C44.3808 27.8353 44.3924 27.8937 44.3871 27.9518C44.3819 28.0099 44.36 28.0653 44.3241 28.1114C44.2715 28.159 44.2094 28.195 44.1419 28.2171C44.0743 28.2391 44.0029 28.2467 43.9322 28.2393H40.9685C40.8396 28.2464 40.7113 28.2156 40.5997 28.1507C40.5025 28.0766 40.432 27.9731 40.3989 27.8557C40.2606 27.5059 40.1256 27.1573 39.9938 26.8098L39.602 25.7639H34.0995C33.9678 26.1136 33.8349 26.4622 33.701 26.8098C33.5671 27.1573 33.4343 27.5103 33.3026 27.8688C33.2718 27.9827 33.2027 28.0826 33.1068 28.1518C33.0109 28.2211 32.894 28.2554 32.7757 28.2491H29.7199C29.6015 28.2548 29.4849 28.2188 29.3906 28.1475C29.3478 28.1097 29.3197 28.0581 29.3113 28.0017C29.3028 27.9454 29.3146 27.8879 29.3445 27.8393L34.9688 13.3475ZM36.8524 17.7573C36.7207 18.107 36.5878 18.4852 36.4539 18.8917C36.32 19.2983 36.1872 19.707 36.0555 20.118C35.9238 20.5311 35.7909 20.9376 35.657 21.3376C35.5231 21.7376 35.3903 22.1136 35.2586 22.4655H38.4363L36.8524 17.7573Z" fill="#222222"/>
<path d="M50.0074 13.3967C50.0046 13.3361 50.0145 13.2757 50.0366 13.2192C50.0588 13.1627 50.0926 13.1115 50.1358 13.0688C50.2334 12.9824 50.3611 12.9377 50.4915 12.9442H62.5074C62.6272 12.9433 62.7436 12.9839 62.8367 13.059C62.8828 13.0999 62.9192 13.1506 62.9431 13.2073C62.967 13.2641 62.9779 13.3254 62.975 13.3869V15.4688C62.975 15.5246 62.975 15.577 62.975 15.6229C62.9671 15.6879 62.9481 15.7511 62.919 15.8098L55.4309 24.7147H62.5403C62.6605 24.7118 62.7775 24.7526 62.8696 24.8295C62.9172 24.8741 62.954 24.9288 62.9774 24.9895C63.0007 25.0503 63.0101 25.1155 63.0046 25.1803V27.7475C62.9992 27.8679 62.9541 27.9831 62.8762 28.0754C62.8381 28.1265 62.7884 28.1679 62.7312 28.1964C62.674 28.2249 62.6109 28.2396 62.5469 28.2393H50.5244C50.4607 28.2408 50.3973 28.2297 50.338 28.2067C50.2786 28.1836 50.2245 28.149 50.1786 28.1049C50.1311 28.056 50.0943 27.9979 50.0705 27.9341C50.0467 27.8703 50.0364 27.8023 50.0403 27.7344V25.5246C50.036 25.4296 50.0613 25.3357 50.1128 25.2557L57.5845 16.4787H50.4915C50.4237 16.4873 50.3548 16.48 50.2903 16.4573C50.2258 16.4347 50.1676 16.3973 50.1202 16.3483C50.0729 16.2992 50.0377 16.2398 50.0175 16.1747C49.9974 16.1097 49.9928 16.0409 50.0041 15.9737L50.0074 13.3967Z" fill="#222222"/>
<path d="M73.9147 13.3475C73.9251 13.2979 73.9478 13.2517 73.9806 13.213C74.0677 13.1078 74.1814 13.0275 74.3099 12.9803C74.3653 12.9577 74.4245 12.9454 74.4844 12.9442H77.1188C77.2287 12.9418 77.3356 12.9804 77.4184 13.0524C77.4872 13.1094 77.5501 13.1731 77.6061 13.2426L77.8663 13.8294L83.3128 27.7835C83.3399 27.8353 83.3515 27.8937 83.3462 27.9518C83.341 28.0099 83.3191 28.0653 83.2831 28.1114C83.2306 28.159 83.1685 28.195 83.101 28.2171C83.0334 28.2391 82.962 28.2467 82.8913 28.2393H79.9276C79.7986 28.2464 79.6704 28.2156 79.5588 28.1507C79.4616 28.0766 79.3911 27.9731 79.358 27.8557C79.2197 27.5059 79.0846 27.1573 78.9529 26.8098L78.5611 25.7639H73.0454C72.9137 26.1136 72.7809 26.4622 72.6469 26.8098C72.513 27.1573 72.3802 27.5103 72.2485 27.8688C72.2177 27.9827 72.1486 28.0826 72.0527 28.1518C71.9568 28.2211 71.8399 28.2554 71.7216 28.2491H68.6691C68.5507 28.2548 68.4341 28.2188 68.3398 28.1475C68.297 28.1097 68.2689 28.0581 68.2605 28.0017C68.252 27.9454 68.2638 27.8879 68.2937 27.8393L73.9147 13.3475ZM75.7983 17.7573C75.6666 18.107 75.5338 18.4852 75.3998 18.8917C75.2659 19.2983 75.1331 19.707 75.0014 20.118C74.8697 20.5311 74.7369 20.9376 74.603 21.3376C74.469 21.7376 74.3362 22.1136 74.2045 22.4655H77.3855L75.7983 17.7573Z" fill="#222222"/>
<path d="M99.1972 17.2622C98.8501 17.0175 98.4698 16.8232 98.0677 16.6852C97.6542 16.5454 97.2201 16.4756 96.7835 16.4786C96.2579 16.4723 95.7369 16.5765 95.2546 16.7844C94.7723 16.9923 94.3394 17.2993 93.9845 17.6852C93.6357 18.0678 93.3631 18.5128 93.181 18.9967C92.7944 20.0218 92.7944 21.1518 93.181 22.177C93.3642 22.6543 93.6369 23.0927 93.9845 23.4688C94.3291 23.8393 94.7459 24.1361 95.2094 24.3409C95.7046 24.5609 96.2413 24.6727 96.7835 24.6688C97.0237 24.6686 97.2636 24.651 97.5013 24.6163C97.7384 24.5814 97.992 24.5365 98.262 24.4819V21.7671C98.2572 21.6472 98.2984 21.53 98.3772 21.4393C98.4199 21.396 98.4714 21.3623 98.5281 21.3402C98.5849 21.3182 98.6457 21.3084 98.7065 21.3114H101.522C101.642 21.3181 101.757 21.3616 101.851 21.436C101.906 21.4715 101.95 21.5202 101.981 21.5775C102.012 21.6349 102.027 21.699 102.026 21.7639V26.754C102.026 26.848 102.001 26.9404 101.953 27.0213C101.905 27.1021 101.836 27.1684 101.753 27.213C101.415 27.44 101.054 27.6302 100.676 27.7803C100.275 27.9412 99.8638 28.0727 99.4441 28.1737C99.0167 28.2769 98.5835 28.3546 98.1467 28.4065C97.7228 28.4576 97.2961 28.4839 96.8691 28.4852C95.4598 28.4902 94.0753 28.1164 92.8616 27.4032C91.694 26.7188 90.7197 25.751 90.0296 24.5901C89.6835 24.0005 89.4177 23.3676 89.2393 22.7081C88.9589 21.6931 88.885 20.6326 89.0219 19.5887C89.1587 18.5449 89.5036 17.5388 90.0362 16.6294C90.3791 16.045 90.7951 15.5062 91.2744 15.0262C91.7473 14.5491 92.2809 14.1358 92.8616 13.7967C93.4554 13.4537 94.0905 13.1871 94.7517 13.0032C96.2119 12.6053 97.7554 12.6269 99.2038 13.0655C99.939 13.2929 100.638 13.6241 101.278 14.0491C101.392 14.1134 101.485 14.2076 101.548 14.3212C101.578 14.3832 101.59 14.4524 101.583 14.5208C101.575 14.5892 101.548 14.6541 101.506 14.7081L99.8294 17.118C99.759 17.2131 99.6663 17.2896 99.5594 17.3409C99.4971 17.3572 99.4318 17.3585 99.3688 17.3449C99.3059 17.3312 99.247 17.3029 99.1972 17.2622V17.2622Z" fill="#222222"/>
<path d="M113.583 13.3475C113.593 13.2979 113.616 13.2517 113.649 13.213C113.736 13.1078 113.849 13.0275 113.978 12.9803C114.033 12.9577 114.092 12.9454 114.152 12.9442H116.787C116.897 12.9418 117.004 12.9804 117.086 13.0524C117.155 13.1094 117.218 13.1731 117.274 13.2426L117.534 13.8294L122.968 27.7835C122.995 27.8353 123.006 27.8937 123.001 27.9518C122.996 28.0099 122.974 28.0653 122.938 28.1114C122.885 28.159 122.823 28.195 122.756 28.2171C122.688 28.2391 122.617 28.2467 122.546 28.2393H119.582C119.453 28.2464 119.325 28.2156 119.214 28.1507C119.116 28.0766 119.046 27.9731 119.013 27.8557C118.874 27.5059 118.739 27.1573 118.608 26.8098L118.216 25.777H112.713C112.582 26.1267 112.449 26.4753 112.315 26.8229C112.181 27.1704 112.048 27.5191 111.916 27.8688C111.886 27.9827 111.817 28.0826 111.721 28.1518C111.625 28.2211 111.508 28.2554 111.39 28.2491H108.337C108.219 28.2548 108.102 28.2188 108.008 28.1475C107.965 28.1097 107.937 28.0581 107.928 28.0017C107.92 27.9454 107.932 27.8879 107.962 27.8393L113.583 13.3475ZM115.466 17.7573C115.335 18.107 115.202 18.4852 115.068 18.8917C114.934 19.2983 114.801 19.707 114.669 20.118C114.538 20.5311 114.405 20.9376 114.271 21.3376C114.137 21.7376 114.004 22.1136 113.872 22.4655H117.05L115.466 17.7573Z" fill="#222222"/>
<path d="M134.824 25.6394C137.251 23.9017 138.466 22.3115 139.035 21.1017C139.201 20.7664 139.296 20.4014 139.317 20.0285C139.337 19.6556 139.281 19.2824 139.154 18.9313C139.026 18.5802 138.828 18.2584 138.572 17.9852C138.317 17.7119 138.008 17.4928 137.666 17.341C135.957 16.6492 134.82 18.2459 134.82 18.2459C134.82 18.2459 133.698 16.6459 131.985 17.3377C131.643 17.4896 131.334 17.7087 131.078 17.9819C130.823 18.2552 130.625 18.577 130.497 18.928C130.369 19.2791 130.314 19.6523 130.334 20.0252C130.354 20.3981 130.45 20.7631 130.615 21.0984C131.185 22.3115 132.394 23.9049 134.82 25.6394H134.824Z" fill="#222222"/>
</g>
<defs>
<clipPath id="clip0">
<rect width="150" height="40" fill="white"/>
</clipPath>
</defs>
</svg>
